<svg width="28" height="28" viewBox="0 0 28 28" fill="none" xmlns="http://www.w3.org/2000/svg">
<path d="M16.0667 21.8276C16.4364 21.8276 16.6895 21.5746 16.7672 21.2048C17.8378 15.4829 18.3633 14.4125 24.3187 13.6145C24.708 13.556 24.9805 13.2836 24.9805 12.9138C24.9805 12.5441 24.708 12.2716 24.3187 12.1937C18.3827 11.3958 17.6237 10.267 16.7672 4.64223C16.7089 4.2531 16.4364 4 16.0667 4C15.7163 4 15.4245 4.23351 15.3466 4.6228C14.2761 10.3643 13.7506 11.3958 7.79517 12.1937C7.40591 12.2716 7.15291 12.5441 7.15291 12.9138C7.15291 13.2836 7.40591 13.556 7.79517 13.6145C13.7702 14.2178 14.5097 15.4829 15.3466 21.1853C15.4049 21.5746 15.6774 21.8276 16.0667 21.8276ZM8.41796 25C8.6709 25 8.88497 24.8248 8.94343 24.5717C9.48834 21.7302 9.2937 21.5941 12.3882 21.1269C12.6608 21.088 12.836 20.8545 12.836 20.582C12.836 20.329 12.6608 20.0954 12.3882 20.0565C9.2937 19.5505 9.48834 19.4143 8.94343 16.67C8.88497 16.3782 8.6905 16.1639 8.41796 16.1639C8.14549 16.1639 7.95087 16.3586 7.87302 16.67C7.30861 19.4143 7.54216 19.5505 4.44765 20.0565C4.1557 20.0954 4 20.329 4 20.582C4 20.8934 4.1557 21.088 4.48656 21.1269C7.54216 21.5941 7.30861 21.7302 7.87302 24.5134C7.95087 24.8054 8.12603 25 8.41796 25Z" fill="black"/>
</svg>
